<mxfile host="Electron" agent="Mozilla/5.0 (Windows NT 10.0; Win64; x64) AppleWebKit/537.36 (KHTML, like Gecko) draw.io/24.7.17 Chrome/128.0.6613.36 Electron/32.0.1 Safari/537.36" version="24.7.17">
  <diagram name="Page-1" id="K-IOY_QzzvsRNaQMwVg3">
    <mxGraphModel dx="1434" dy="836" grid="1" gridSize="10" guides="1" tooltips="1" connect="1" arrows="1" fold="1" page="1" pageScale="1" pageWidth="850" pageHeight="1100" math="0" shadow="0">
      <root>
        <mxCell id="0" />
        <mxCell id="1" parent="0" />
        <mxCell id="QM3Hr0phpXIf1FbNzPYK-7" style="edgeStyle=orthogonalEdgeStyle;rounded=0;orthogonalLoop=1;jettySize=auto;html=1;exitX=0.5;exitY=1;exitDx=0;exitDy=0;" edge="1" parent="1" source="QM3Hr0phpXIf1FbNzPYK-1" target="QM3Hr0phpXIf1FbNzPYK-2">
          <mxGeometry relative="1" as="geometry" />
        </mxCell>
        <mxCell id="QM3Hr0phpXIf1FbNzPYK-1" value="start" style="ellipse;whiteSpace=wrap;html=1;" vertex="1" parent="1">
          <mxGeometry x="365" y="20" width="120" height="80" as="geometry" />
        </mxCell>
        <mxCell id="QM3Hr0phpXIf1FbNzPYK-8" style="edgeStyle=orthogonalEdgeStyle;rounded=0;orthogonalLoop=1;jettySize=auto;html=1;exitX=0.5;exitY=1;exitDx=0;exitDy=0;" edge="1" parent="1" source="QM3Hr0phpXIf1FbNzPYK-2" target="QM3Hr0phpXIf1FbNzPYK-4">
          <mxGeometry relative="1" as="geometry" />
        </mxCell>
        <mxCell id="QM3Hr0phpXIf1FbNzPYK-2" value="display &quot;Enter area code or 0 to exit&quot;" style="shape=parallelogram;perimeter=parallelogramPerimeter;whiteSpace=wrap;html=1;fixedSize=1;" vertex="1" parent="1">
          <mxGeometry x="365" y="160" width="120" height="60" as="geometry" />
        </mxCell>
        <mxCell id="QM3Hr0phpXIf1FbNzPYK-10" style="edgeStyle=orthogonalEdgeStyle;rounded=0;orthogonalLoop=1;jettySize=auto;html=1;exitX=0;exitY=0.5;exitDx=0;exitDy=0;entryX=1;entryY=0.5;entryDx=0;entryDy=0;" edge="1" parent="1" source="QM3Hr0phpXIf1FbNzPYK-3" target="QM3Hr0phpXIf1FbNzPYK-5">
          <mxGeometry relative="1" as="geometry" />
        </mxCell>
        <mxCell id="QM3Hr0phpXIf1FbNzPYK-11" value="No" style="edgeLabel;html=1;align=center;verticalAlign=middle;resizable=0;points=[];" vertex="1" connectable="0" parent="QM3Hr0phpXIf1FbNzPYK-10">
          <mxGeometry x="-0.04" y="-3" relative="1" as="geometry">
            <mxPoint as="offset" />
          </mxGeometry>
        </mxCell>
        <mxCell id="QM3Hr0phpXIf1FbNzPYK-3" value="Is areaCode = 0?" style="rhombus;whiteSpace=wrap;html=1;" vertex="1" parent="1">
          <mxGeometry x="385" y="356" width="80" height="80" as="geometry" />
        </mxCell>
        <mxCell id="QM3Hr0phpXIf1FbNzPYK-9" style="edgeStyle=orthogonalEdgeStyle;rounded=0;orthogonalLoop=1;jettySize=auto;html=1;exitX=0.5;exitY=1;exitDx=0;exitDy=0;entryX=0.5;entryY=0;entryDx=0;entryDy=0;" edge="1" parent="1" source="QM3Hr0phpXIf1FbNzPYK-4" target="QM3Hr0phpXIf1FbNzPYK-3">
          <mxGeometry relative="1" as="geometry" />
        </mxCell>
        <mxCell id="QM3Hr0phpXIf1FbNzPYK-4" value="input areaCode" style="shape=parallelogram;perimeter=parallelogramPerimeter;whiteSpace=wrap;html=1;fixedSize=1;" vertex="1" parent="1">
          <mxGeometry x="365" y="260" width="120" height="60" as="geometry" />
        </mxCell>
        <mxCell id="QM3Hr0phpXIf1FbNzPYK-16" style="edgeStyle=orthogonalEdgeStyle;rounded=0;orthogonalLoop=1;jettySize=auto;html=1;exitX=0.5;exitY=1;exitDx=0;exitDy=0;" edge="1" parent="1" source="QM3Hr0phpXIf1FbNzPYK-5" target="QM3Hr0phpXIf1FbNzPYK-14">
          <mxGeometry relative="1" as="geometry" />
        </mxCell>
        <mxCell id="QM3Hr0phpXIf1FbNzPYK-5" value="input phoneNumber" style="shape=parallelogram;perimeter=parallelogramPerimeter;whiteSpace=wrap;html=1;fixedSize=1;" vertex="1" parent="1">
          <mxGeometry x="200" y="366" width="120" height="60" as="geometry" />
        </mxCell>
        <mxCell id="QM3Hr0phpXIf1FbNzPYK-14" value="input numberOfTexts" style="shape=parallelogram;perimeter=parallelogramPerimeter;whiteSpace=wrap;html=1;fixedSize=1;" vertex="1" parent="1">
          <mxGeometry x="200" y="480" width="120" height="60" as="geometry" />
        </mxCell>
        <mxCell id="QM3Hr0phpXIf1FbNzPYK-19" style="edgeStyle=orthogonalEdgeStyle;rounded=0;orthogonalLoop=1;jettySize=auto;html=1;exitX=0.5;exitY=1;exitDx=0;exitDy=0;" edge="1" parent="1" source="QM3Hr0phpXIf1FbNzPYK-15" target="QM3Hr0phpXIf1FbNzPYK-18">
          <mxGeometry relative="1" as="geometry" />
        </mxCell>
        <mxCell id="QM3Hr0phpXIf1FbNzPYK-20" value="No" style="edgeLabel;html=1;align=center;verticalAlign=middle;resizable=0;points=[];" vertex="1" connectable="0" parent="QM3Hr0phpXIf1FbNzPYK-19">
          <mxGeometry x="-0.3143" y="-2" relative="1" as="geometry">
            <mxPoint as="offset" />
          </mxGeometry>
        </mxCell>
        <mxCell id="QM3Hr0phpXIf1FbNzPYK-22" style="edgeStyle=orthogonalEdgeStyle;rounded=0;orthogonalLoop=1;jettySize=auto;html=1;exitX=1;exitY=0.5;exitDx=0;exitDy=0;entryX=0;entryY=0.5;entryDx=0;entryDy=0;" edge="1" parent="1" source="QM3Hr0phpXIf1FbNzPYK-15">
          <mxGeometry relative="1" as="geometry">
            <mxPoint x="385" y="620" as="targetPoint" />
          </mxGeometry>
        </mxCell>
        <mxCell id="QM3Hr0phpXIf1FbNzPYK-23" value="Yes" style="edgeLabel;html=1;align=center;verticalAlign=middle;resizable=0;points=[];" vertex="1" connectable="0" parent="QM3Hr0phpXIf1FbNzPYK-22">
          <mxGeometry x="0.0824" y="3" relative="1" as="geometry">
            <mxPoint as="offset" />
          </mxGeometry>
        </mxCell>
        <mxCell id="QM3Hr0phpXIf1FbNzPYK-15" value="is numberOfTexts &amp;gt; 100?" style="rhombus;whiteSpace=wrap;html=1;" vertex="1" parent="1">
          <mxGeometry x="220" y="580" width="80" height="80" as="geometry" />
        </mxCell>
        <mxCell id="QM3Hr0phpXIf1FbNzPYK-17" style="edgeStyle=orthogonalEdgeStyle;rounded=0;orthogonalLoop=1;jettySize=auto;html=1;exitX=0.5;exitY=1;exitDx=0;exitDy=0;entryX=0.5;entryY=0;entryDx=0;entryDy=0;" edge="1" parent="1" source="QM3Hr0phpXIf1FbNzPYK-14" target="QM3Hr0phpXIf1FbNzPYK-15">
          <mxGeometry relative="1" as="geometry" />
        </mxCell>
        <mxCell id="QM3Hr0phpXIf1FbNzPYK-37" style="edgeStyle=orthogonalEdgeStyle;rounded=0;orthogonalLoop=1;jettySize=auto;html=1;exitX=0.5;exitY=1;exitDx=0;exitDy=0;entryX=0;entryY=0.5;entryDx=0;entryDy=0;" edge="1" parent="1" source="QM3Hr0phpXIf1FbNzPYK-18" target="QM3Hr0phpXIf1FbNzPYK-58">
          <mxGeometry relative="1" as="geometry">
            <mxPoint x="385" y="1190" as="targetPoint" />
          </mxGeometry>
        </mxCell>
        <mxCell id="QM3Hr0phpXIf1FbNzPYK-18" value="monthlyCharge = 5.00" style="whiteSpace=wrap;html=1;aspect=fixed;" vertex="1" parent="1">
          <mxGeometry x="220" y="730" width="80" height="80" as="geometry" />
        </mxCell>
        <mxCell id="QM3Hr0phpXIf1FbNzPYK-27" style="edgeStyle=orthogonalEdgeStyle;rounded=0;orthogonalLoop=1;jettySize=auto;html=1;exitX=1;exitY=0.5;exitDx=0;exitDy=0;entryX=0;entryY=0.5;entryDx=0;entryDy=0;" edge="1" parent="1" source="QM3Hr0phpXIf1FbNzPYK-24">
          <mxGeometry relative="1" as="geometry">
            <mxPoint x="530" y="760" as="targetPoint" />
          </mxGeometry>
        </mxCell>
        <mxCell id="QM3Hr0phpXIf1FbNzPYK-28" value="No" style="edgeLabel;html=1;align=center;verticalAlign=middle;resizable=0;points=[];" vertex="1" connectable="0" parent="QM3Hr0phpXIf1FbNzPYK-27">
          <mxGeometry x="-0.1692" y="3" relative="1" as="geometry">
            <mxPoint as="offset" />
          </mxGeometry>
        </mxCell>
        <mxCell id="QM3Hr0phpXIf1FbNzPYK-30" style="edgeStyle=orthogonalEdgeStyle;rounded=0;orthogonalLoop=1;jettySize=auto;html=1;exitX=0.5;exitY=1;exitDx=0;exitDy=0;entryX=0.5;entryY=0;entryDx=0;entryDy=0;" edge="1" parent="1" source="QM3Hr0phpXIf1FbNzPYK-24" target="QM3Hr0phpXIf1FbNzPYK-55">
          <mxGeometry relative="1" as="geometry">
            <mxPoint x="425" y="860" as="targetPoint" />
          </mxGeometry>
        </mxCell>
        <mxCell id="QM3Hr0phpXIf1FbNzPYK-31" value="Yes" style="edgeLabel;html=1;align=center;verticalAlign=middle;resizable=0;points=[];" vertex="1" connectable="0" parent="QM3Hr0phpXIf1FbNzPYK-30">
          <mxGeometry x="-0.2333" y="-3" relative="1" as="geometry">
            <mxPoint as="offset" />
          </mxGeometry>
        </mxCell>
        <mxCell id="QM3Hr0phpXIf1FbNzPYK-24" value="is textsOver100 &amp;gt; 200?" style="rhombus;whiteSpace=wrap;html=1;" vertex="1" parent="1">
          <mxGeometry x="401" y="720" width="80" height="80" as="geometry" />
        </mxCell>
        <mxCell id="QM3Hr0phpXIf1FbNzPYK-36" style="edgeStyle=orthogonalEdgeStyle;rounded=0;orthogonalLoop=1;jettySize=auto;html=1;entryX=0.5;entryY=0;entryDx=0;entryDy=0;" edge="1" parent="1" source="QM3Hr0phpXIf1FbNzPYK-56" target="QM3Hr0phpXIf1FbNzPYK-58">
          <mxGeometry relative="1" as="geometry">
            <mxPoint x="425" y="1060" as="sourcePoint" />
            <mxPoint x="425" y="1150" as="targetPoint" />
          </mxGeometry>
        </mxCell>
        <mxCell id="QM3Hr0phpXIf1FbNzPYK-40" style="edgeStyle=orthogonalEdgeStyle;rounded=0;orthogonalLoop=1;jettySize=auto;html=1;exitX=0.5;exitY=1;exitDx=0;exitDy=0;" edge="1" parent="1">
          <mxGeometry relative="1" as="geometry">
            <mxPoint x="425" y="1230" as="sourcePoint" />
            <mxPoint x="450" y="1220" as="targetPoint" />
          </mxGeometry>
        </mxCell>
        <mxCell id="QM3Hr0phpXIf1FbNzPYK-42" style="edgeStyle=orthogonalEdgeStyle;rounded=0;orthogonalLoop=1;jettySize=auto;html=1;exitX=0.5;exitY=1;exitDx=0;exitDy=0;entryX=0.5;entryY=0;entryDx=0;entryDy=0;" edge="1" parent="1" source="QM3Hr0phpXIf1FbNzPYK-39" target="QM3Hr0phpXIf1FbNzPYK-41">
          <mxGeometry relative="1" as="geometry">
            <Array as="points">
              <mxPoint x="452" y="1310" />
              <mxPoint x="452" y="1310" />
            </Array>
          </mxGeometry>
        </mxCell>
        <mxCell id="QM3Hr0phpXIf1FbNzPYK-39" value="display &quot;Area Code : areaCode" style="shape=parallelogram;perimeter=parallelogramPerimeter;whiteSpace=wrap;html=1;fixedSize=1;" vertex="1" parent="1">
          <mxGeometry x="392" y="1220" width="120" height="60" as="geometry" />
        </mxCell>
        <mxCell id="QM3Hr0phpXIf1FbNzPYK-41" value="display &quot;Phone Number &quot; phoneNumber" style="shape=parallelogram;perimeter=parallelogramPerimeter;whiteSpace=wrap;html=1;fixedSize=1;" vertex="1" parent="1">
          <mxGeometry x="392" y="1360" width="120" height="60" as="geometry" />
        </mxCell>
        <mxCell id="QM3Hr0phpXIf1FbNzPYK-50" style="edgeStyle=orthogonalEdgeStyle;rounded=0;orthogonalLoop=1;jettySize=auto;html=1;exitX=1;exitY=0.75;exitDx=0;exitDy=0;entryX=1;entryY=0.5;entryDx=0;entryDy=0;" edge="1" parent="1" source="QM3Hr0phpXIf1FbNzPYK-43" target="QM3Hr0phpXIf1FbNzPYK-2">
          <mxGeometry relative="1" as="geometry">
            <Array as="points">
              <mxPoint x="690" y="1562" />
              <mxPoint x="690" y="190" />
            </Array>
          </mxGeometry>
        </mxCell>
        <mxCell id="QM3Hr0phpXIf1FbNzPYK-43" value="display &quot;Total monthly charge: &quot; monthlyCharge" style="shape=parallelogram;perimeter=parallelogramPerimeter;whiteSpace=wrap;html=1;fixedSize=1;" vertex="1" parent="1">
          <mxGeometry x="383" y="1530" width="120" height="60" as="geometry" />
        </mxCell>
        <mxCell id="QM3Hr0phpXIf1FbNzPYK-44" style="edgeStyle=orthogonalEdgeStyle;rounded=0;orthogonalLoop=1;jettySize=auto;html=1;exitX=0.5;exitY=1;exitDx=0;exitDy=0;entryX=0.583;entryY=0.067;entryDx=0;entryDy=0;entryPerimeter=0;" edge="1" parent="1" source="QM3Hr0phpXIf1FbNzPYK-41" target="QM3Hr0phpXIf1FbNzPYK-43">
          <mxGeometry relative="1" as="geometry" />
        </mxCell>
        <mxCell id="QM3Hr0phpXIf1FbNzPYK-47" value="" style="edgeStyle=orthogonalEdgeStyle;rounded=0;orthogonalLoop=1;jettySize=auto;html=1;" edge="1" parent="1" source="QM3Hr0phpXIf1FbNzPYK-45" target="QM3Hr0phpXIf1FbNzPYK-3">
          <mxGeometry relative="1" as="geometry" />
        </mxCell>
        <mxCell id="QM3Hr0phpXIf1FbNzPYK-45" value="stop" style="ellipse;whiteSpace=wrap;html=1;" vertex="1" parent="1">
          <mxGeometry x="510" y="356" width="120" height="80" as="geometry" />
        </mxCell>
        <mxCell id="QM3Hr0phpXIf1FbNzPYK-46" style="edgeStyle=orthogonalEdgeStyle;rounded=0;orthogonalLoop=1;jettySize=auto;html=1;exitX=1;exitY=0.5;exitDx=0;exitDy=0;entryX=0;entryY=0.5;entryDx=0;entryDy=0;" edge="1" parent="1" source="QM3Hr0phpXIf1FbNzPYK-3" target="QM3Hr0phpXIf1FbNzPYK-45">
          <mxGeometry relative="1" as="geometry" />
        </mxCell>
        <mxCell id="QM3Hr0phpXIf1FbNzPYK-48" value="Yes" style="edgeLabel;html=1;align=center;verticalAlign=middle;resizable=0;points=[];" vertex="1" connectable="0" parent="QM3Hr0phpXIf1FbNzPYK-46">
          <mxGeometry x="-0.6444" y="-1" relative="1" as="geometry">
            <mxPoint as="offset" />
          </mxGeometry>
        </mxCell>
        <mxCell id="QM3Hr0phpXIf1FbNzPYK-52" style="edgeStyle=orthogonalEdgeStyle;rounded=0;orthogonalLoop=1;jettySize=auto;html=1;exitX=0.5;exitY=1;exitDx=0;exitDy=0;entryX=0.5;entryY=0;entryDx=0;entryDy=0;" edge="1" parent="1" source="QM3Hr0phpXIf1FbNzPYK-51" target="QM3Hr0phpXIf1FbNzPYK-24">
          <mxGeometry relative="1" as="geometry" />
        </mxCell>
        <mxCell id="QM3Hr0phpXIf1FbNzPYK-51" value="textsOver100 = numberOfTexts - 100" style="rounded=0;whiteSpace=wrap;html=1;" vertex="1" parent="1">
          <mxGeometry x="380" y="590" width="120" height="60" as="geometry" />
        </mxCell>
        <mxCell id="QM3Hr0phpXIf1FbNzPYK-54" style="edgeStyle=orthogonalEdgeStyle;rounded=0;orthogonalLoop=1;jettySize=auto;html=1;exitX=0.5;exitY=1;exitDx=0;exitDy=0;entryX=1;entryY=0.5;entryDx=0;entryDy=0;" edge="1" parent="1" source="QM3Hr0phpXIf1FbNzPYK-53" target="QM3Hr0phpXIf1FbNzPYK-58">
          <mxGeometry relative="1" as="geometry">
            <mxPoint x="465" y="1190" as="targetPoint" />
          </mxGeometry>
        </mxCell>
        <mxCell id="QM3Hr0phpXIf1FbNzPYK-53" value="monthlyCharge = 5.00 + (textsOver100 * .03)" style="rounded=0;whiteSpace=wrap;html=1;" vertex="1" parent="1">
          <mxGeometry x="519" y="730" width="120" height="60" as="geometry" />
        </mxCell>
        <mxCell id="QM3Hr0phpXIf1FbNzPYK-57" style="edgeStyle=orthogonalEdgeStyle;rounded=0;orthogonalLoop=1;jettySize=auto;html=1;exitX=0.5;exitY=1;exitDx=0;exitDy=0;entryX=0.5;entryY=0;entryDx=0;entryDy=0;" edge="1" parent="1" source="QM3Hr0phpXIf1FbNzPYK-55" target="QM3Hr0phpXIf1FbNzPYK-56">
          <mxGeometry relative="1" as="geometry" />
        </mxCell>
        <mxCell id="QM3Hr0phpXIf1FbNzPYK-55" value="textsOver300 = textsOver100 - 200&lt;div&gt;&lt;br&gt;&lt;/div&gt;" style="rounded=0;whiteSpace=wrap;html=1;" vertex="1" parent="1">
          <mxGeometry x="380" y="870" width="120" height="60" as="geometry" />
        </mxCell>
        <mxCell id="QM3Hr0phpXIf1FbNzPYK-56" value="monthlyCharge = 5.00 + (textsOver100 * .03) + (textsOver300 &amp;amp; .02)" style="rounded=0;whiteSpace=wrap;html=1;" vertex="1" parent="1">
          <mxGeometry x="380" y="980" width="120" height="60" as="geometry" />
        </mxCell>
        <mxCell id="QM3Hr0phpXIf1FbNzPYK-59" style="edgeStyle=orthogonalEdgeStyle;rounded=0;orthogonalLoop=1;jettySize=auto;html=1;exitX=0.5;exitY=1;exitDx=0;exitDy=0;entryX=0.408;entryY=-0.017;entryDx=0;entryDy=0;entryPerimeter=0;" edge="1" parent="1" source="QM3Hr0phpXIf1FbNzPYK-58" target="QM3Hr0phpXIf1FbNzPYK-39">
          <mxGeometry relative="1" as="geometry">
            <mxPoint x="441" y="1240" as="targetPoint" />
          </mxGeometry>
        </mxCell>
        <mxCell id="QM3Hr0phpXIf1FbNzPYK-58" value="monthlyCharg = monthlyCharge * 1.14" style="rounded=0;whiteSpace=wrap;html=1;" vertex="1" parent="1">
          <mxGeometry x="381" y="1090" width="120" height="60" as="geometry" />
        </mxCell>
      </root>
    </mxGraphModel>
  </diagram>
</mxfile>
